<?xml version="1.0" standalone="no"?>
<!DOCTYPE svg PUBLIC "-//W3C//DTD SVG 20010904//EN"
 "http://www.w3.org/TR/2001/REC-SVG-20010904/DTD/svg10.dtd">
<svg version="1.0" xmlns="http://www.w3.org/2000/svg"
 width="700.000000pt" height="700.000000pt" viewBox="0 0 700.000000 700.000000"
 preserveAspectRatio="xMidYMid meet">
<metadata>
Created by potrace 1.14, written by Peter Selinger 2001-2017
</metadata>
<g transform="translate(0.000000,700.000000) scale(0.100000,-0.100000)"
fill="#000000" stroke="none">
<path d="M1689 5481 c0 -9 -2 -776 -3 -1706 -2 -929 -6 -1701 -9 -1715 -3 -14
-8 -50 -11 -80 -4 -30 -16 -89 -28 -130 -69 -251 -216 -346 -542 -351 l-116
-1 -1 -49 c-1 -62 -1 -156 0 -262 l1 -82 150 1 c162 2 216 7 326 29 371 77
572 293 658 710 8 39 17 97 20 130 4 33 9 80 12 105 4 35 8 2745 5 3301 l-1
116 -230 -1 c-201 0 -230 -2 -231 -15z"/>
<path d="M3309 5471 c-1 -14 -2 -790 -2 -1723 l-2 -1697 443 0 c243 0 443 3
443 7 1 4 2 305 3 669 0 364 3 664 6 666 3 3 311 -298 685 -668 l680 -674 553
0 c509 0 553 1 540 16 -15 19 49 -45 -998 993 l-812 805 315 310 c173 171 512
504 753 741 584 574 557 548 571 565 11 14 -43 16 -500 16 l-512 0 -47 -46
c-976 -960 -1222 -1201 -1228 -1201 -3 0 -5 280 -5 623 l0 623 -442 0 -443 0
-1 -25z"/>
</g>
</svg>
